<svg width="26" height="26" viewBox="0 0 26 26" fill="none" xmlns="http://www.w3.org/2000/svg">
<path d="M1.63544 1.74102C-0.329142 3.78164 0.0729411 5.94935 0.0729411 12.5348C0.0729411 18.0035 -0.881226 23.4858 4.11252 24.7764C5.6719 25.1775 19.4886 25.1775 21.0459 24.7743C23.125 24.2379 24.8167 22.5514 25.0479 19.6108C25.0802 19.2004 25.0802 5.87643 25.0469 5.45768C24.8011 2.32539 22.8729 0.520184 20.3323 0.154559C19.75 0.0701838 19.6334 0.0451838 16.6459 0.0399755C6.04898 0.0451838 3.72607 -0.426691 1.63544 1.74102V1.74102Z" fill="url(#paint0_linear_1_4)"/>
<path d="M12.5709 3.30978C8.78857 3.30978 5.19691 2.97332 3.82503 6.49415C3.25836 7.94832 3.34066 9.83686 3.34066 12.541C3.34066 14.9139 3.26461 17.1442 3.82503 18.5869C5.19378 22.1098 8.81461 21.7723 12.5688 21.7723C16.1907 21.7723 19.925 22.1494 21.3136 18.5869C21.8813 17.1181 21.7979 15.2577 21.7979 12.541C21.7979 8.93478 21.9969 6.60665 20.2479 4.85874C18.4771 3.0879 16.0823 3.30978 12.5667 3.30978H12.5709ZM11.7438 4.97332C19.6334 4.96082 20.6375 4.08374 20.0834 16.2681C19.8865 20.5775 16.6052 20.1046 12.5719 20.1046C5.21774 20.1046 5.00628 19.8942 5.00628 12.5369C5.00628 5.09415 5.58961 4.97749 11.7438 4.97124V4.97332ZM17.4979 6.50561C16.8865 6.50561 16.3907 7.00144 16.3907 7.6129C16.3907 8.22436 16.8865 8.72019 17.4979 8.72019C18.1094 8.72019 18.6052 8.22436 18.6052 7.6129C18.6052 7.00144 18.1094 6.50561 17.4979 6.50561V6.50561ZM12.5709 7.8004C9.95315 7.8004 7.83128 9.92332 7.83128 12.541C7.83128 15.1587 9.95315 17.2806 12.5709 17.2806C15.1886 17.2806 17.3094 15.1587 17.3094 12.541C17.3094 9.92332 15.1886 7.8004 12.5709 7.8004V7.8004ZM12.5709 9.46394C16.6386 9.46394 16.6438 15.6181 12.5709 15.6181C8.5042 15.6181 8.49795 9.46394 12.5709 9.46394Z" fill="white"/>
<defs>
<linearGradient id="paint0_linear_1_4" x1="1.68338" y1="23.4432" x2="24.9182" y2="3.3337" gradientUnits="userSpaceOnUse">
<stop stop-color="#8E7F42"/>
<stop offset="0.5" stop-color="#FF543E"/>
<stop offset="1" stop-color="#C837AB"/>
</linearGradient>
</defs>
</svg>
