<svg width="25" height="25" viewBox="0 0 25 25" fill="none" xmlns="http://www.w3.org/2000/svg">
<path d="M12.4998 24.9996C19.4032 24.9996 24.9996 19.4032 24.9996 12.4998C24.9996 5.59634 19.4032 0 12.4998 0C5.59634 0 0 5.59634 0 12.4998C0 19.4032 5.59634 24.9996 12.4998 24.9996Z" fill="#CB2027"/>
<path d="M13.5087 16.7383C12.5637 16.6652 12.1667 16.1966 11.4256 15.7467C11.0182 17.8838 10.5205 19.9324 9.04606 21.0026C8.59039 17.7726 9.71408 15.3465 10.2359 12.7714C9.34642 11.274 10.3429 8.26018 12.219 9.00284C14.5281 9.91595 10.2199 14.5704 13.1121 15.1518C16.1315 15.7588 17.3642 9.91261 15.4916 8.01106C12.7861 5.26569 7.61645 7.94867 8.25215 11.8788C8.40701 12.8396 9.3999 13.1313 8.64877 14.457C6.91724 14.0736 6.40074 12.7079 6.46714 10.8872C6.57432 7.907 9.14499 5.82029 11.7235 5.53152C14.9844 5.16654 18.0451 6.72895 18.4676 9.7963C18.9429 13.2583 16.9954 17.0074 13.5087 16.7383Z" fill="#F1F2F2"/>
</svg>
